<?xml version="1.0" encoding="utf-8"?>
<!-- Generator: Adobe Illustrator 16.0.0, SVG Export Plug-In . SVG Version: 6.00 Build 0)  -->
<!DOCTYPE svg PUBLIC "-//W3C//DTD SVG 1.1//EN" "http://www.w3.org/Graphics/SVG/1.1/DTD/svg11.dtd">
<svg version="1.1" id="Ebene_1" xmlns="http://www.w3.org/2000/svg" xmlns:xlink="http://www.w3.org/1999/xlink" x="0px" y="0px"
	 width="19.756px" height="28.855px" viewBox="0 0 19.756 28.855" enable-background="new 0 0 19.756 28.855" xml:space="preserve">
<g>
	<path fill="#E95C1F" d="M129.933-581.022c-0.102-0.855-1.144-2.709-1.144-2.709c-0.229,1.231,0.052,2.123-0.688,3.316
		c-0.961-2.063-0.332-1.594-0.484-3.025c-0.122-1.133-1.185-1.527-1.974-3.544c-0.298-0.761-0.76-1.903-0.845-2.798l-0.481,0.79
		c-0.089,0.161-0.655,1.267-0.464,2.517c0.172,1.125,0.839,1.882,1.112,2.752c0.438,1.393-0.374,2.944-0.374,2.944
		s0.162-0.506-0.992-2.368c-0.619-1.002-0.712-2.973-0.726-3.479l-0.78,1.28c-0.679,1.399-0.721,3.052-0.401,3.904
		c0.546,1.457-0.954,2.887-0.954,2.887c-1.223-1.668-0.721-2.784-0.346-3.998l-0.77,1.263c-0.727,1.048-1.157,2.318-1.157,3.69
		c0,3.581,2.905,6.485,6.485,6.485c3.582,0,6.486-2.905,6.486-6.485c0-0.644-0.096-1.265-0.271-1.852
		c-0.066-0.222-0.375-0.895-0.465-1.106c-0.027,0.904-0.004,2.554-0.975,3.085C129.36-578.488,130.04-580.117,129.933-581.022z"/>
</g>
<g>
	<line fill="none" stroke="#000000" stroke-width="0.3" x1="-274.205" y1="-614.824" x2="-274.205" y2="-578.824"/>
	<line fill="none" stroke="#000000" stroke-width="0.3" x1="-328.205" y1="-560.824" x2="-292.205" y2="-560.824"/>
	<line fill="none" stroke="#000000" stroke-width="0.3" x1="-328.205" y1="282.066" x2="-292.205" y2="282.066"/>
	<line fill="none" stroke="#000000" stroke-width="0.3" x1="-274.205" y1="336.066" x2="-274.205" y2="300.066"/>
	<line fill="none" stroke="#000000" stroke-width="0.3" x1="322.07" y1="-614.824" x2="322.07" y2="-578.824"/>
	<line fill="none" stroke="#000000" stroke-width="0.3" x1="376.07" y1="-560.824" x2="340.07" y2="-560.824"/>
	<line fill="none" stroke="#000000" stroke-width="0.3" x1="376.07" y1="282.066" x2="340.07" y2="282.066"/>
	<line fill="none" stroke="#000000" stroke-width="0.3" x1="322.07" y1="336.066" x2="322.07" y2="300.066"/>
</g>
<text transform="matrix(1 0 0 1 -30.6221 -465.6289)"><tspan x="0" y="0" font-family="'Avenir-Light'" font-size="14">Jan Hoydem</tspan><tspan x="-33.468" y="14.4" font-family="'Avenir-Light'" font-size="12">Daheim 12 · 73511 Zuhause</tspan><tspan x="-20.106" y="28.8" font-family="'Avenir-Light'" font-size="12">Telefon </tspan><tspan x="23.477" y="28.8" font-family="'Avenir-Light'" font-size="12" letter-spacing="1">0</tspan><tspan x="31.217" y="28.8" font-family="'Avenir-Light'" font-size="12">6</tspan><tspan x="37.457" y="28.8" font-family="'Avenir-Light'" font-size="12" letter-spacing="1">2</tspan><tspan x="45.197" y="28.8" font-family="'Avenir-Light'" font-size="12">3</tspan><tspan x="51.437" y="28.8" font-family="'Avenir-Light'" font-size="12" letter-spacing="1">4</tspan><tspan x="59.356" y="28.8" font-family="'Avenir-Light'" font-size="12">/</tspan><tspan x="64.516" y="28.8" font-family="'Avenir-Light'" font-size="12" letter-spacing="1">2</tspan><tspan x="72.256" y="28.8" font-family="'Avenir-Light'" font-size="12">5</tspan><tspan x="78.496" y="28.8" font-family="'Avenir-Light'" font-size="12" letter-spacing="1">7</tspan><tspan x="86.236" y="28.8" font-family="'Avenir-Light'" font-size="12">89</tspan></text>
<text transform="matrix(1 0 0 1 -38.1221 -162.1289)"><tspan x="0" y="0" font-family="'Avenir-Light'" font-size="14">Jan Hoydem</tspan><tspan x="-33.468" y="14.4" font-family="'Avenir-Light'" font-size="12">Daheim 12 · 73511 Zuhause</tspan><tspan x="-20.106" y="28.8" font-family="'Avenir-Light'" font-size="12">Telefon </tspan><tspan x="23.477" y="28.8" font-family="'Avenir-Light'" font-size="12" letter-spacing="1">0</tspan><tspan x="31.217" y="28.8" font-family="'Avenir-Light'" font-size="12">6</tspan><tspan x="37.457" y="28.8" font-family="'Avenir-Light'" font-size="12" letter-spacing="1">2</tspan><tspan x="45.197" y="28.8" font-family="'Avenir-Light'" font-size="12">3</tspan><tspan x="51.437" y="28.8" font-family="'Avenir-Light'" font-size="12" letter-spacing="1">4</tspan><tspan x="59.356" y="28.8" font-family="'Avenir-Light'" font-size="12">/</tspan><tspan x="64.516" y="28.8" font-family="'Avenir-Light'" font-size="12" letter-spacing="1">2</tspan><tspan x="72.256" y="28.8" font-family="'Avenir-Light'" font-size="12">5</tspan><tspan x="78.496" y="28.8" font-family="'Avenir-Light'" font-size="12" letter-spacing="1">7</tspan><tspan x="86.236" y="28.8" font-family="'Avenir-Light'" font-size="12">89</tspan></text>
<g>
	<path d="M3.838-567.71c-0.058,0.085-0.645,0.551-1.761,1.399c-0.889,0.679-1.332,1.286-1.332,1.823v35.358
		c0,2.6-0.511,4.521,0.008,5.878c0.287,0.735,0.719,1.356,1.296,1.865c0.172,0.085,0.259,0.212,0.259,0.382
		c0,0.141-0.022,0.381-0.307,0.48c-0.283,0.099-1.153,0.704-1.4,1.338c-0.543,1.391-0.485,1.688-1.121,3.635
		c-1.578,4.828-2.016,10.609-2.13,11.339c-1.542,1.583-5.917,6.146-7.354,7.802c-3.234,2.141-9.859,2.531-12.635,3.939
		c-1.386,0.575-3.517-0.269-4.409-0.905c-0.892-0.636-1.252-2.897-1.252-3.83c0-0.848,0.269-1.555,0.805-2.12
		c0.537-0.565,1.201-0.848,1.993-0.848c0.848,0,1.526,0.254,2.035,0.763c0.396,0.396,0.594,0.82,0.594,1.272
		c0,0.65,0.035,1.109,0.106,1.378c0.07,0.269,0.29,0.403,0.657,0.403c0.712,0,6.231-0.036,9.874-3.175
		c2.576-2.219,4.087-5.608,4.888-7.082c1.86-3.42,2.159-10.561,2.159-15.224v-42.65c0-0.537-0.424-1.145-1.271-1.823
		c-0.622-0.48-1.244-0.975-1.866-1.484c-0.084-0.113-0.106-0.282-0.063-0.509c0.042-0.226,0.261-0.339,0.659-0.339
		c0.284-0.028,1.134,0.007,2.553,0.106c1.418,0.099,2.411,0.148,2.979,0.148c1.134,0,2.29-0.042,3.468-0.127
		c1.176-0.084,1.835-0.127,1.978-0.127c0.51,0,0.766,0.155,0.766,0.466C4.01-568.007,3.952-567.851,3.838-567.71z"/>
	<path d="M-5.173-536.071c-0.394,0.057-0.734,0.084-1.017,0.084c-1.866,0-3.568-0.438-5.11-1.314
		c-1.826-1.046-2.756-2.417-2.783-4.112c-0.012-0.82,0.161-1.484,0.519-1.993c0.219-0.311,0.569-0.608,1.044-0.891
		c0.476-0.283,1.125-0.424,1.945-0.424c0.367,0,0.622,0.028,0.763,0.085c0.34,0.084,0.508-0.014,0.503-0.297
		c0-0.169-0.119-0.354-0.349-0.551c-0.485-0.424-1.016-0.763-1.585-1.018c-0.851-0.396-1.717-0.593-2.593-0.593
		c-1.413,0-2.609,0.381-3.587,1.145c-1.198,0.933-1.783,2.247-1.756,3.943c0.034,1.894,0.569,3.519,1.609,4.875
		c0.894,1.13,2.184,2.134,3.867,3.01c0.883,0.48,1.965,0.862,3.242,1.145c1.587,0.368,3.372,0.551,5.35,0.551l0,0 M0.569-532.959
		l0.246,0.025c2.214-1.046,4.912-1.985,8.092-2.819c3.179-0.834,6.028-1.25,8.544-1.25c2.007,0,3.563,0.099,4.667,0.296
		c1.73,0.311,3.826,0.763,6.075,1.781l0.184,25.998c0.008,0.537-0.406,1.145-1.241,1.823c-0.614,0.48-1.227,0.975-1.839,1.484
		c-0.085,0.113-0.104,0.283-0.056,0.509c0.045,0.226,0.267,0.339,0.662,0.339c0.282,0.028,1.129-0.007,2.542-0.106
		c1.412-0.099,2.4-0.148,2.966-0.148c1.131,0,2.282,0.042,3.456,0.127c1.178,0.085,1.834,0.127,1.975,0.127
		c0.509,0,0.761-0.155,0.756-0.466c-0.004-0.169-0.062-0.325-0.18-0.466c-0.056-0.084-0.643-0.551-1.76-1.399
		c-0.889-0.679-1.337-1.287-1.347-1.825l0.124-55.594c-0.009-0.539,0.404-1.132,1.243-1.783c1.116-0.861,1.699-1.333,1.757-1.416
		c0.056-0.056,0.095-0.139,0.122-0.25c0.027-0.083,0.041-0.153,0.04-0.208c-0.005-0.306-0.262-0.458-0.771-0.458
		c-0.286-0.028-1.124,0.007-2.521,0.106s-2.363,0.148-2.9,0.148c-0.905,0-2.266-0.071-4.075-0.212
		c-0.681-0.057-1.162-0.071-1.441-0.042c-0.481,0-0.721,0.169-0.713,0.509c0.001,0.141,0.047,0.254,0.13,0.339
		c0.089,0.113,0.703,0.608,1.851,1.484c0.887,0.679,1.335,1.286,1.345,1.823l-0.362,26.335c-1.594-0.678-3.525-0.961-5.579-1.272
		c-2.054-0.311-4.083-0.466-6.09-0.466c-2.261,0-4.885,0.325-7.872,0.975c-2.982,0.65-5.755,1.515-8,2.532"/>
</g>
<g>
	<linearGradient id="SVGID_1_" gradientUnits="userSpaceOnUse" x1="4.7866" y1="-403.3809" x2="5.2953" y2="-344.6284">
		<stop  offset="0" style="stop-color:#FFEE27"/>
		<stop  offset="0.0595" style="stop-color:#FFE000"/>
		<stop  offset="0.1303" style="stop-color:#FFD300"/>
		<stop  offset="0.2032" style="stop-color:#FDCB00"/>
		<stop  offset="0.2809" style="stop-color:#FDC800"/>
		<stop  offset="0.6685" style="stop-color:#F09135"/>
		<stop  offset="0.8876" style="stop-color:#E76233"/>
		<stop  offset="1" style="stop-color:#E13130"/>
	</linearGradient>
	<path fill="url(#SVGID_1_)" d="M20.772-375.92c-0.317-2.687-3.59-8.515-3.59-8.515c-0.725,3.868,0.156,6.671-2.164,10.422
		c-3.021-6.486-1.044-5.008-1.526-9.506c-0.381-3.561-3.72-4.801-6.199-11.138c-0.936-2.392-2.388-5.98-2.658-8.793l-1.513,2.483
		c-0.274,0.504-2.059,3.982-1.456,7.91c0.541,3.535,2.639,5.913,3.497,8.647c1.375,4.379-1.177,9.251-1.177,9.251
		s0.509-1.59-3.115-7.439c-1.951-3.149-2.239-9.341-2.281-10.932l-2.452,4.024c-2.134,4.397-2.269,9.592-1.265,12.27
		c1.717,4.578-2.999,9.071-2.999,9.071c-3.837-5.241-2.267-8.749-1.085-12.563l-2.418,3.968c-2.286,3.293-3.635,7.285-3.635,11.596
		c0,11.253,9.131,20.381,20.381,20.381c11.254,0,20.382-9.127,20.382-20.381c0-2.024-0.298-3.977-0.851-5.819
		c-0.209-0.697-1.181-2.813-1.46-3.477c-0.09,2.841-0.016,8.027-3.067,9.697C18.977-367.956,21.109-373.073,20.772-375.92z"/>
</g>
<path fill="#BEDAAA" d="M19.041-561.104l-4.991-8.229l-5.282,8.669h0.001c-0.527,0.904-0.836,1.952-0.836,3.074
	c0,3.375,2.738,6.112,6.112,6.112c3.375,0,6.112-2.737,6.112-6.112C20.157-558.899,19.741-560.109,19.041-561.104z"/>
<path opacity="0.5" fill="#70B871" d="M19.041-557.271L14.05-565.5l-5.282,8.669h0.001c-0.527,0.904-0.836,1.952-0.836,3.074
	c0,3.375,2.738,6.112,6.112,6.112c3.375,0,6.112-2.737,6.112-6.112C20.157-555.066,19.741-556.276,19.041-557.271z"/>
<path fill="#70B871" d="M13.286-293.534l-8.066-13.299l-8.537,14.01h0.002c-0.853,1.46-1.351,3.154-1.351,4.967
	c0,5.454,4.425,9.878,9.878,9.878c5.454,0,9.878-4.424,9.878-9.878C15.089-289.972,14.417-291.927,13.286-293.534z"/>
<g>
	<path d="M14.688-268.879v4.665h-7.66v57.922c0,12.925-2.089,18.464-14.275,18.464v-4.665c11.055,0,9.575-7.191,9.575-16.424
		v-55.297h-8.182v-4.665H14.688z"/>
	<path d="M-8.623-229.297v21.044h5.895v3.29h-15.491v-3.29h5.895v-42.91h-5.895v-3.29h15.491v3.29h-5.895v18.576h26.459v-18.576
		h-5.895v-3.29h15.492v3.29h-5.895v42.91h5.895v3.29H11.941v-3.29h5.895v-21.044H-8.623z"/>
</g>
<path fill="#72B1B6" d="M17.952,13.299L9.886,0L1.349,14.01h0.002C0.499,15.471,0,17.164,0,18.977c0,5.455,4.425,9.879,9.878,9.879
	c5.454,0,9.878-4.424,9.878-9.879C19.756,16.861,19.083,14.906,17.952,13.299z"/>
<g>
	<path d="M-0.808-7.697v-4.665h7.66v-57.922c0-12.925,2.089-18.464,14.275-18.464v4.665c-11.055,0-9.575,7.191-9.575,16.423v55.298
		h8.182v4.665H-0.808z"/>
</g>
<text transform="matrix(1 0 0 1 -48.7969 71.0215)" font-family="'MemphisLT-Light'" font-size="26.3977">easydrops</text>
<g>
	<path d="M-320.69-440.072h6.914v21.75c0,2.844-0.25,5.031-0.75,6.562c-0.672,2-1.891,3.605-3.656,4.816s-4.094,1.816-6.984,1.816
		c-3.391,0-6-0.949-7.828-2.848s-2.75-4.684-2.766-8.355l6.539-0.75c0.078,1.969,0.367,3.359,0.867,4.172
		c0.75,1.234,1.891,1.852,3.422,1.852c1.547,0,2.641-0.441,3.281-1.324s0.961-2.715,0.961-5.496V-440.072z"/>
	<path d="M-320.62-406.212v-34.359h6.938v13.523h13.594v-13.523h6.938v34.359h-6.938v-15.023h-13.594l-3.26,9.451L-320.62-406.212z"
		/>
</g>
<g>
	<path d="M-274.771-493.832v17.391c0,2.391-0.891,4.461-2.672,6.211s-3.906,2.625-6.375,2.625c-1.484,0-2.941-0.34-4.371-1.02
		s-2.988-1.793-4.676-3.34l0.016-10.32c0-0.469,0.094-0.805,0.281-1.008s0.422-0.305,0.703-0.305c0.297,0,0.539,0.102,0.727,0.305
		s0.281,0.539,0.281,1.008l-0.039,9.383c1.203,1.109,2.395,1.941,3.574,2.496s2.348,0.832,3.504,0.832
		c1.281,0,2.492-0.312,3.633-0.938c0.859-0.469,1.645-1.258,2.355-2.367s1.066-2.297,1.066-3.562v-17.391h-7.711
		c-0.484,0-0.828-0.09-1.031-0.27s-0.305-0.418-0.305-0.715s0.102-0.535,0.305-0.715s0.547-0.27,1.031-0.27h14.391
		c0.469,0,0.805,0.09,1.008,0.27s0.305,0.418,0.305,0.715s-0.102,0.535-0.305,0.715s-0.539,0.27-1.008,0.27H-274.771z"/>
	<path d="M-261.685-481.645h-13.055l-0.609,8.172l-1.266,1.359l-0.094-21.719h-1.219c-0.484,0-0.828-0.09-1.031-0.27
		s-0.305-0.418-0.305-0.715s0.102-0.535,0.305-0.715s0.547-0.27,1.031-0.27h5.836c0.469,0,0.805,0.09,1.008,0.27
		s0.305,0.418,0.305,0.715s-0.102,0.535-0.305,0.715s-0.539,0.27-1.008,0.27h-2.648v10.219h13.055v-10.219h-2.625
		c-0.469,0-0.805-0.09-1.008-0.27s-0.305-0.418-0.305-0.715s0.098-0.535,0.293-0.715s0.535-0.27,1.02-0.27h5.836
		c0.484,0,0.828,0.09,1.031,0.27s0.305,0.418,0.305,0.715s-0.102,0.535-0.305,0.715s-0.547,0.27-1.031,0.27h-1.219v23.484h2.227
		c0.469,0,0.805,0.09,1.008,0.27s0.305,0.418,0.305,0.715c0,0.281-0.102,0.516-0.305,0.703s-0.539,0.281-1.008,0.281h-6.844
		c-0.469,0-0.805-0.094-1.008-0.281s-0.305-0.422-0.305-0.703c0-0.297,0.098-0.535,0.293-0.715s0.535-0.27,1.02-0.27h2.625V-481.645
		z"/>
</g>
<rect x="-291.851" y="-483.582" width="16.531" height="1.938"/>
<path stroke="#FFFFFF" stroke-miterlimit="10" d="M61.81,209.979c0-0.852-0.291-1.535-0.874-2.051
	c-0.583-0.515-1.547-0.772-2.892-0.772h-6.388v-67.373h3.497c1.389,0,2.375-0.258,2.958-0.772c0.583-0.516,0.874-1.199,0.874-2.051
	c0-0.853-0.291-1.536-0.874-2.051c-0.583-0.516-1.569-0.773-2.958-0.773H38.411c-1.39,0-2.365,0.258-2.925,0.773
	c-0.561,0.515-0.841,1.198-0.841,2.051c0,0.852,0.291,1.535,0.874,2.051c0.583,0.515,1.547,0.772,2.892,0.772h7.53V169.1H8.49
	v-29.316h7.598h5.76c1.345,0,2.309-0.258,2.892-0.772c0.583-0.516,0.874-1.199,0.874-2.051c0-0.853-0.292-1.536-0.874-2.051
	c-0.583-0.516-1.547-0.773-2.892-0.773h-5.76H-0.654h-18.782c-1.39,0-2.375,0.258-2.958,0.773c-0.583,0.515-0.874,1.198-0.874,2.051
	c0,0.852,0.292,1.535,0.874,2.051c0.583,0.515,1.569,0.772,2.958,0.772h18.782h3.339l-0.154,25.092
	c-2.695-2.034-5.275-3.682-7.708-4.842c-4.102-1.949-8.282-2.925-12.54-2.925c-7.083,0-13.178,2.511-18.289,7.53
	c-5.11,5.021-7.665,10.96-7.665,17.818l0.029,4.931h-0.042c0,6.858,2.555,12.798,7.665,17.818c5.11,5.021,11.207,7.53,18.289,7.53
	c0.175,0,0.29-0.062,0.448-0.078v0.146c6.858,0,12.798-2.556,17.818-7.665c4.369-4.446,6.833-9.643,7.4-15.582l0.09-0.062
	l0.016-2.09c0.004-0.188,0.025-0.363,0.025-0.555c0-0.042-0.018-0.066-0.02-0.111l0.091-12.114l0.352,0.123h37.451v32.409h-7.53
	c-1.39,0-2.365,0.258-2.925,0.772c-0.561,0.516-0.841,1.199-0.841,2.051c0,0.808,0.291,1.479,0.874,2.018s1.547,0.807,2.892,0.807
	h19.633c1.345,0,2.309-0.269,2.892-0.807S61.81,210.787,61.81,209.979z M-0.271,197.271c-1.345,2.466-3.608,4.719-6.791,6.758
	s-6.589,3.059-10.22,3.059v0.099c-0.153-0.025-0.283-0.099-0.448-0.099c-3.675,0-7.149-0.896-10.421-2.689
	c-2.466-1.344-4.718-3.607-6.758-6.791c-2.006-3.126-3.013-6.477-3.046-10.04v-5.11c0-3.631,1.02-7.037,3.059-10.22
	s4.292-5.446,6.757-6.791c3.272-1.793,6.747-2.689,10.422-2.689c3.317,0,6.667,0.796,10.052,2.387
	c3.351,1.577,6.735,3.938,10.151,7.071l-0.093,15.056C2.327,190.789,1.454,194.129-0.271,197.271z"/>
</svg>
